<?xml version='1.0' encoding='utf-8'?>
<svg xmlns="http://www.w3.org/2000/svg" width="240" height="250" viewBox="0 0 240 250" fill="none"><g transform="translate(-60 -108)"><g>
<path d="M135.988 122.73L140.973 136.395L139.318 136.998L134.333 123.334L135.988 122.73ZM143.919 128.596L145.723 134.905L144.111 135.366L141.112 124.877L142.669 124.432L143.138 126.071L143.274 126.032C143.368 125.429 143.619 124.894 144.027 124.428C144.434 123.957 145.034 123.608 145.826 123.382C146.536 123.179 147.199 123.147 147.815 123.286C148.43 123.421 148.969 123.739 149.433 124.242C149.895 124.74 150.254 125.435 150.509 126.327L152.415 132.992L150.803 133.453L148.929 126.897C148.693 126.073 148.296 125.493 147.737 125.155C147.176 124.813 146.522 124.749 145.776 124.962C145.261 125.109 144.833 125.352 144.492 125.691C144.155 126.029 143.932 126.445 143.822 126.939C143.712 127.434 143.744 127.986 143.919 128.596ZM158.062 120.641L158.334 122.035L152.563 123.163L152.29 121.769L158.062 120.641ZM156.11 132.138L153.73 119.953C153.611 119.34 153.655 118.8 153.863 118.335C154.071 117.87 154.386 117.49 154.806 117.196C155.226 116.902 155.691 116.705 156.203 116.605C156.607 116.526 156.943 116.494 157.212 116.509C157.48 116.524 157.682 116.547 157.819 116.579L157.622 118.093C157.533 118.082 157.41 118.069 157.253 118.057C157.101 118.043 156.906 118.059 156.669 118.106C156.126 118.212 155.76 118.426 155.572 118.747C155.388 119.067 155.348 119.492 155.452 120.022L157.755 131.816L156.11 132.138ZM162.019 116.335L164.128 130.727L162.469 130.97L160.361 116.578L162.019 116.335ZM173.731 125.478L173.289 119.045L174.961 118.93L175.709 129.813L174.036 129.928L173.91 128.086L173.796 128.094C173.579 128.664 173.215 129.161 172.703 129.585C172.191 130.005 171.524 130.243 170.702 130.299C170.021 130.346 169.407 130.239 168.857 129.978C168.307 129.712 167.86 129.287 167.517 128.703C167.172 128.114 166.969 127.357 166.905 126.431L166.43 119.516L168.102 119.401L168.569 126.203C168.624 126.997 168.889 127.614 169.366 128.056C169.847 128.498 170.435 128.695 171.129 128.647C171.545 128.618 171.96 128.483 172.376 128.241C172.796 127.999 173.137 127.648 173.4 127.188C173.667 126.729 173.777 126.159 173.731 125.478ZM183.332 130.147C182.282 130.11 181.383 129.847 180.638 129.357C179.897 128.862 179.335 128.189 178.952 127.337C178.574 126.481 178.405 125.494 178.443 124.378C178.482 123.261 178.719 122.284 179.156 121.446C179.597 120.604 180.193 119.956 180.943 119.504C181.698 119.047 182.567 118.835 183.552 118.869C184.119 118.889 184.677 119.003 185.224 119.211C185.771 119.42 186.264 119.745 186.704 120.186C187.144 120.623 187.486 121.194 187.732 121.899C187.978 122.604 188.083 123.465 188.048 124.482L188.023 125.192L179.619 124.902L179.669 123.454L186.37 123.685C186.391 123.07 186.287 122.517 186.058 122.026C185.833 121.535 185.501 121.142 185.061 120.847C184.626 120.553 184.105 120.395 183.499 120.374C182.832 120.351 182.249 120.496 181.75 120.811C181.256 121.121 180.87 121.534 180.592 122.05C180.313 122.566 180.164 123.125 180.143 123.726L180.11 124.691C180.081 125.514 180.199 126.217 180.463 126.8C180.732 127.378 181.117 127.824 181.618 128.14C182.119 128.451 182.707 128.618 183.384 128.642C183.824 128.657 184.224 128.609 184.583 128.499C184.947 128.383 185.264 128.205 185.532 127.963C185.802 127.716 186.014 127.406 186.169 127.033L187.771 127.543C187.582 128.086 187.279 128.559 186.862 128.961C186.446 129.359 185.938 129.663 185.338 129.875C184.739 130.082 184.07 130.172 183.332 130.147ZM192.943 124.05L192.043 130.551L190.383 130.321L191.879 119.515L193.483 119.737L193.249 121.425L193.39 121.445C193.719 120.931 194.165 120.543 194.727 120.282C195.289 120.015 195.979 119.939 196.795 120.052C197.526 120.153 198.146 120.392 198.653 120.768C199.161 121.139 199.525 121.649 199.746 122.296C199.968 122.938 200.015 123.719 199.888 124.639L198.938 131.505L197.277 131.275L198.212 124.521C198.33 123.672 198.201 122.981 197.826 122.446C197.451 121.906 196.879 121.583 196.11 121.477C195.58 121.404 195.09 121.453 194.641 121.625C194.196 121.798 193.824 122.088 193.524 122.496C193.224 122.903 193.03 123.422 192.943 124.05ZM206.19 133.339C205.196 133.099 204.397 132.656 203.793 132.013C203.189 131.37 202.793 130.589 202.606 129.672C202.419 128.755 202.454 127.767 202.71 126.709C202.971 125.632 203.399 124.729 203.995 124.002C204.596 123.27 205.309 122.759 206.135 122.467C206.967 122.171 207.861 122.14 208.818 122.371C209.564 122.552 210.202 122.853 210.733 123.274C211.265 123.695 211.661 124.2 211.923 124.79C212.184 125.379 212.281 126.017 212.212 126.702L210.583 126.307C210.576 125.794 210.404 125.299 210.066 124.822C209.734 124.342 209.209 124.015 208.491 123.842C207.856 123.688 207.259 123.718 206.7 123.934C206.147 124.146 205.665 124.518 205.253 125.052C204.847 125.582 204.547 126.247 204.353 127.048C204.154 127.867 204.11 128.612 204.221 129.281C204.336 129.952 204.59 130.513 204.982 130.964C205.379 131.416 205.9 131.72 206.544 131.876C206.968 131.979 207.37 131.998 207.751 131.934C208.131 131.871 208.475 131.73 208.781 131.512C209.087 131.294 209.338 131.004 209.533 130.642L211.162 131.036C210.918 131.64 210.554 132.148 210.069 132.562C209.589 132.972 209.017 133.252 208.352 133.403C207.693 133.55 206.972 133.529 206.19 133.339ZM216.984 136.581C215.993 136.233 215.214 135.714 214.648 135.023C214.089 134.33 213.754 133.52 213.643 132.592C213.538 131.662 213.67 130.67 214.041 129.616C214.411 128.562 214.929 127.7 215.596 127.031C216.269 126.358 217.03 125.918 217.881 125.71C218.738 125.499 219.631 125.557 220.56 125.883C221.096 126.072 221.595 126.347 222.054 126.709C222.514 127.071 222.888 127.529 223.176 128.082C223.465 128.63 223.622 129.277 223.646 130.023C223.67 130.769 223.513 131.622 223.176 132.583L222.941 133.253L215.006 130.467L215.486 129.1L221.812 131.321C222.016 130.74 222.082 130.181 222.01 129.644C221.942 129.109 221.742 128.634 221.41 128.222C221.083 127.811 220.633 127.505 220.062 127.304C219.432 127.083 218.832 127.048 218.262 127.199C217.698 127.347 217.206 127.626 216.786 128.036C216.366 128.445 216.057 128.934 215.857 129.501L215.537 130.412C215.264 131.19 215.167 131.896 215.245 132.53C215.33 133.162 215.563 133.704 215.947 134.154C216.332 134.601 216.844 134.936 217.483 135.161C217.899 135.306 218.294 135.38 218.67 135.382C219.052 135.38 219.407 135.304 219.736 135.154C220.067 134.999 220.362 134.766 220.621 134.456L221.998 135.421C221.656 135.883 221.225 136.244 220.708 136.504C220.191 136.759 219.616 136.898 218.98 136.921C218.347 136.939 217.681 136.826 216.984 136.581Z" fill="#CED6E2" />
</g>
</g></svg>